<?xml version="1.0" standalone="no"?>
<!DOCTYPE svg PUBLIC "-//W3C//DTD SVG 20010904//EN"
 "http://www.w3.org/TR/2001/REC-SVG-20010904/DTD/svg10.dtd">
<svg version="1.0" xmlns="http://www.w3.org/2000/svg"
 width="512.000000pt" height="512.000000pt" viewBox="0 0 512.000000 512.000000"
 preserveAspectRatio="xMidYMid meet">

<g transform="translate(0.000000,512.000000) scale(0.100000,-0.100000)"
fill="#000000" stroke="none">
<path d="M1335 4465 c-350 -65 -620 -336 -680 -682 -14 -79 -15 -239 -13
-1264 4 -1329 -3 -1215 88 -1404 86 -177 208 -300 385 -385 189 -91 75 -84
1404 -88 1293 -3 1274 -4 1428 58 202 81 359 231 452 432 69 149 74 178 78
513 5 328 2 352 -49 411 -49 56 -100 77 -174 72 -78 -5 -136 -41 -174 -108
-25 -45 -25 -48 -31 -350 -3 -169 -10 -318 -16 -335 -46 -133 -134 -216 -268
-251 -74 -20 -2336 -20 -2410 0 -143 38 -233 128 -271 271 -20 74 -20 2336 0
2410 35 134 118 222 251 268 17 6 166 13 335 16 302 6 305 6 350 31 67 38 103
96 108 174 5 71 -14 120 -65 168 -58 55 -78 58 -380 57 -182 0 -302 -5 -348
-14z"/>
<path d="M2910 4464 c-69 -30 -121 -95 -134 -166 -17 -96 59 -212 156 -236 32
-8 171 -12 435 -12 l388 0 -912 -912 -912 -913 -7 -50 c-18 -128 65 -238 190
-252 95 -11 53 -49 1029 926 l907 906 0 -388 c0 -264 4 -403 12 -435 16 -64
86 -134 151 -151 51 -12 105 -7 148 15 39 20 97 88 109 131 8 27 10 241 8 724
l-3 685 -28 42 c-15 23 -46 54 -69 69 l-42 28 -695 2 c-606 2 -701 1 -731 -13z"/>
</g>
</svg>
